<svg viewBox="0 0 1018 1018" xmlns="http://www.w3.org/2000/svg" xmlns:serif="http://www.serif.com/" fill-rule="evenodd" clip-rule="evenodd" stroke-linejoin="round" stroke-miterlimit="1.414">
  <g serif:id="Layer 1" fill="white" fill-rule="nonzero">
    <path d="M424.783 581.996c20.991-27.405 67.975-148.571-18.442-143.371-16.267.975-31.417 8.841-44.475 18.6a110.756 110.756 0 0 1-10.888 8.795c-1.012.742-42.033 44.475-51.02 116.213-1.426 11.346-2.788 22.846-2.838 34.283-.046 11.209.23 22.68 1.93 33.759 1.17 7.629 3.09 14.87 5.2 22.254a150.883 150.883 0 0 0 4.57 13.47c16.563-9.153 32.404-19.587 47.275-31.378 26.263-20.821 48.325-46.046 68.688-72.625M617.57 362.207c2.646 41.32 9.959 82.675 20.584 122.667 5.558 20.916 11.395 41.925 18.762 62.279 7.5 20.704 15.758 41.18 24.783 61.258.75 1.675 1.546 3.33 2.309 5a336.332 336.332 0 0 0 4.996-9.262l15.929-33.567c5.07-10.991 10.137-21.983 15.208-32.97a1292.29 1292.29 0 0 0 27.992-69.242c.429-1.159.867-2.321 1.296-3.484 1.362-3.712 2.683-7.437 4.008-11.158 1.008-2.838 2.025-5.675 3.013-8.52.783-2.263 1.541-4.534 2.316-6.8 1.421-4.193 2.842-8.384 4.217-12.588.375-1.142.733-2.288 1.104-3.43a1108.302 1108.302 0 0 0 4.97-15.72c.105-.33.2-.659.3-.988 11.218-36.625 20.522-73.808 27.526-111.496.05-.27.096-.546.146-.817a915.055 915.055 0 0 0 3.116-17.82c.134-.784.25-1.571.375-2.359a850.002 850.002 0 0 0 2.5-16.308c.2-1.367.375-2.742.567-4.113a904.79 904.79 0 0 0 2.12-16.175 637.448 637.448 0 0 0 2.938-25.912c.134-1.413.25-2.825.371-4.238a631.549 631.549 0 0 0 1.338-18.696c.004-.016.004-.029.008-.041.1-1.813.233-3.617.32-5.43 1.105-8.541 1.284-17.12 1.73-25.712.892-17.196.192-37.179-2.017-57.32-35.029-25.876-73.483-47.372-114.575-63.655-2.512 3.38-3.97 5.5-3.97 5.5-8.505 14.892-16.984 29.758-24.609 45.121-9.07 18.275-17.18 36.992-23.587 56.388-10.309 31.191-17.605 63.083-22.313 95.579-5.942 40.983-6.417 82.766-3.77 124.029"/>
    <path d="M173.121 727.326c20.713-2.046 41.225-5.488 61.292-11.1a564.743 564.743 0 0 0 14.292-4.2c-.146-.45-.305-.9-.446-1.35a205.792 205.792 0 0 1-4.05-14.9 205.98 205.98 0 0 1-3.38-12.555c-4.112-12.075-6.912-23.258-8.874-36.27-2.2-14.584-2.963-29.313-3.055-44.042-.204-32.2 6.021-64.246 13.755-95.334 6.266-25.191 15.408-50.387 28.25-73.054 13.9-24.533 32.733-46.737 55.82-63.075 20.621-14.591 44.575-24.708 69.575-28.308 11.634-1.671 23.076-2.192 34.796-1.175 13.68 1.192 27.142 3.467 39.6 9.67 8.78 4.372 17.396 9.526 24.571 16.267 1.888 1.78 3.642 3.675 5.33 5.63 4.874 5.216 9.02 11.066 12.574 17.25 7.025 12.229 10.013 26.416 10.88 40.533.787 7.287.904 14.642.616 21.77-.562 13.905-12.829 66.25-16.787 74.697-2.813 6.945-5.63 13.887-8.446 20.833a417.416 417.416 0 0 1-22.52 43.017c-24.788 43.541-57.163 82.3-96.097 114.329a395.985 395.985 0 0 1-37.904 27.608c3.667 2.859 17.55 37.396 129.717 35.2 24.391-.479 48.316-4.929 70.925-14.241 21.037-8.663 40.233-20.875 57.804-35.25 16.13-13.192 30.363-28.805 43.146-45.459-31.5-62.837-56.317-128.866-71.671-197.475-6.067-22.25-11.175-44.78-15.2-67.575-8.32-47.146-10.846-95.404-9.138-143.2 1.884-52.73 11.375-105.546 27.667-155.68 9.104-28.008 20.383-54.879 34.163-80.908 3.004-5.675 6.146-11.241 9.358-16.766C583.917 4.238 546.738 0 508.571 0 227.696 0 .001 227.696.001 508.571c0 73.48 15.608 143.3 43.645 206.375 5.43 1.53 10.892 2.963 16.417 4.242 36.762 8.508 75.408 11.863 113.058 8.138m684.987-588.143c-.433 19.8-1.817 39.583-3.825 59.17-3.825 37.196-9.596 74.126-17.37 110.667-3.838 20.046-8.238 39.988-13.284 59.792-15.4 60.442-36.254 119.246-60.042 176.859-7.28 17.625-15.037 35.245-22.625 52.787a843.824 843.824 0 0 1-21.48 45.83 613.48 613.48 0 0 1-10.478 19.84c13.691 25.901 28.433 51.247 43.975 76.076 29.846 47.675 62.596 93.354 97.025 137.808 1.116 1.459 2.262 2.896 3.383 4.346 100.675-92.92 163.75-225.98 163.75-373.788 0-145.483-61.1-276.687-159.03-369.387"/>
    <path d="M679.783 738.4a1112.558 1112.558 0 0 1-8.309-14.304c-18.154 24.646-39.175 47.012-64.225 65.166-29.454 21.342-65.15 33.33-100.837 38.459-16.125 2.316-32.33 3.504-48.634 3.22-13.266-.224-26.25-1.262-39.479-2.466-20.025-1.817-39.883-4.13-59.396-9.138-12.887-3.308-24.92-8.137-36.637-14.375-9.704-5.162-18.221-11.491-26.292-18.937-.575-.538-1.133-1.096-1.704-1.638-.53-.475-1.08-.908-1.608-1.391-5.48-4.988-10.513-10.425-15.134-16.213-31.246 12.142-64.02 20.217-97.375 23.804a374.555 374.555 0 0 1-96.196-2.07c90.992 137.737 247.176 228.625 424.613 228.625 111.68 0 214.93-36.03 298.825-97.055-9.125-11.387-18.17-22.845-27.004-34.458-36.016-47.32-70.308-96.02-100.608-147.23"/>
  </g>
</svg>
